<svg xmlns="http://www.w3.org/2000/svg" viewBox="0 0 1200 800" role="img" aria-label="Comisaria y patrulla policial">
  <defs><linearGradient id="p" x1="0" x2="1"><stop offset="0" stop-color="#02070a"/><stop offset="0.6" stop-color="#06141a"/><stop offset="1" stop-color="#08090d"/></linearGradient><filter id="n"><feTurbulence baseFrequency="0.68" numOctaves="3" seed="21"/><feComponentTransfer><feFuncA type="table" tableValues="0 0.12"/></feComponentTransfer></filter></defs><rect width="1200" height="800" fill="url(#p)"/><circle cx="825" cy="210" r="280" fill="#00e5ff" opacity="0.2"/><circle cx="300" cy="230" r="210" fill="#ffd700" opacity="0.08"/>
  <rect x="220" y="185" width="720" height="430" fill="#080b10" stroke="#263240" stroke-width="5"/><rect x="310" y="280" width="120" height="90" fill="#111827"/><rect x="540" y="280" width="120" height="90" fill="#111827"/><rect x="770" y="280" width="120" height="90" fill="#111827"/><rect x="520" y="450" width="160" height="165" fill="#050607"/><text x="385" y="245" fill="#00e5ff" font-family="Arial Black, Arial, sans-serif" font-size="48">POLICIA METRO</text>
  <path d="M290 635h430c48 0 88 38 88 86H215c0-48 37-86 75-86z" fill="#07080b" stroke="#00e5ff" stroke-opacity="0.35" stroke-width="7"/><rect x="395" y="590" width="160" height="52" rx="18" fill="#101722"/><rect x="560" y="590" width="130" height="52" rx="18" fill="#101722"/><circle cx="360" cy="720" r="42" fill="#050507" stroke="#d1d5db" stroke-width="8"/><circle cx="672" cy="720" r="42" fill="#050507" stroke="#d1d5db" stroke-width="8"/><rect x="520" y="574" width="32" height="17" fill="#00e5ff"/><rect x="558" y="574" width="32" height="17" fill="#b00020"/><rect width="1200" height="800" filter="url(#n)"/>
</svg>
