<svg xmlns="http://www.w3.org/2000/svg" viewBox="0 0 1200 800" role="img" aria-label="Mercado negro urbano">
  <defs><linearGradient id="m" x1="0" x2="1" y1="0" y2="1"><stop offset="0" stop-color="#0b0502"/><stop offset="0.55" stop-color="#050505"/><stop offset="1" stop-color="#001419"/></linearGradient><filter id="n"><feTurbulence baseFrequency="0.74" numOctaves="3" seed="31"/><feComponentTransfer><feFuncA type="table" tableValues="0 0.14"/></feComponentTransfer></filter></defs><rect width="1200" height="800" fill="url(#m)"/><circle cx="850" cy="210" r="250" fill="#00e5ff" opacity="0.13"/><circle cx="315" cy="315" r="280" fill="#ffd700" opacity="0.12"/>
  <rect x="95" y="250" width="1010" height="350" fill="#070708"/><path d="M130 250h940l-75-95H205z" fill="#15100b"/><path d="M0 600h1200v200H0z" fill="#020203"/>
  <g fill="#111827"><rect x="190" y="520" width="170" height="90"/><rect x="420" y="485" width="155" height="125"/><rect x="645" y="530" width="180" height="80"/><rect x="880" y="495" width="135" height="115"/></g><g stroke="#ffd700" stroke-width="5" opacity="0.7"><path d="M190 520h170"/><path d="M420 485h155"/><path d="M645 530h180"/><path d="M880 495h135"/></g>
  <text x="215" y="340" fill="#ffd700" font-family="Arial Black, Arial, sans-serif" font-size="60">MERCADO NEGRO</text><text x="270" y="400" fill="#00e5ff" font-family="Arial, sans-serif" font-size="30">contrabando / informacion / riesgo</text><g fill="#0f1117"><path d="M260 610h70l28 95H230z"/><path d="M710 615h74l30 90H680z"/><path d="M930 610h65l28 95H900z"/></g><rect width="1200" height="800" filter="url(#n)"/>
</svg>
