<svg xmlns="http://www.w3.org/2000/svg" viewBox="0 0 1200 800" role="img" aria-label="Redada policial nocturna">
  <defs><linearGradient id="s" x1="0" x2="1"><stop offset="0" stop-color="#09090d"/><stop offset="0.5" stop-color="#250006"/><stop offset="1" stop-color="#001720"/></linearGradient><filter id="n"><feTurbulence baseFrequency="0.8" numOctaves="3" seed="8"/><feComponentTransfer><feFuncA type="table" tableValues="0 0.15"/></feComponentTransfer></filter></defs><rect width="1200" height="800" fill="url(#s)"/>
  <path d="M0 565h1200v235H0z" fill="#030304"/><rect x="70" y="170" width="220" height="405" fill="#080a0e"/><rect x="350" y="230" width="190" height="345" fill="#07090c"/><rect x="805" y="145" width="245" height="430" fill="#07090c"/>
  <path d="M430 612h250c42 0 78 34 78 76v12H350v-8c0-44 36-80 80-80z" fill="#060608" stroke="#1f2937" stroke-width="6"/><circle cx="443" cy="704" r="42" fill="#09090b" stroke="#00e5ff" stroke-opacity="0.45" stroke-width="8"/><circle cx="675" cy="704" r="42" fill="#09090b" stroke="#00e5ff" stroke-opacity="0.45" stroke-width="8"/><rect x="465" y="560" width="145" height="56" rx="18" fill="#10131a"/><rect x="610" y="560" width="100" height="56" rx="18" fill="#10131a"/>
  <path d="M510 560 120 360" stroke="#00e5ff" stroke-width="42" stroke-linecap="round" opacity="0.18"/><path d="M610 560 1080 315" stroke="#b00020" stroke-width="42" stroke-linecap="round" opacity="0.2"/><rect x="526" y="545" width="32" height="18" fill="#00e5ff"/><rect x="565" y="545" width="32" height="18" fill="#b00020"/>
  <g fill="#ffd700" opacity="0.56"><rect x="110" y="235" width="18" height="45"/><rect x="180" y="315" width="18" height="45"/><rect x="390" y="290" width="16" height="40"/><rect x="890" y="210" width="18" height="45"/><rect x="980" y="335" width="18" height="45"/></g><text x="60" y="725" fill="#00e5ff" font-family="Arial, sans-serif" font-size="34" font-weight="700">OPERACION ACTIVA</text><rect width="1200" height="800" filter="url(#n)"/>
</svg>
