<svg xmlns="http://www.w3.org/2000/svg" viewBox="0 0 1200 800" role="img" aria-label="Centro urbano nocturno">
  <defs><linearGradient id="a" x1="0" x2="1" y1="0" y2="1"><stop offset="0" stop-color="#090a10"/><stop offset="0.55" stop-color="#1b0509"/><stop offset="1" stop-color="#001923"/></linearGradient><filter id="n"><feTurbulence baseFrequency="0.7" numOctaves="2" seed="3"/><feComponentTransfer><feFuncA type="table" tableValues="0 0.13"/></feComponentTransfer></filter></defs>
  <rect width="1200" height="800" fill="url(#a)"/><circle cx="920" cy="160" r="210" fill="#00e5ff" opacity="0.17"/><circle cx="250" cy="230" r="250" fill="#b00020" opacity="0.24"/>
  <path d="M0 600h1200v200H0z" fill="#020204"/><path d="M0 650 C260 610 410 665 620 625 C820 588 985 628 1200 590 L1200 800 H0z" fill="#050507"/>
  <g fill="#090b0f"><rect x="70" y="250" width="120" height="390"/><rect x="230" y="160" width="150" height="500"/><rect x="430" y="305" width="95" height="345"/><rect x="575" y="110" width="190" height="560"/><rect x="820" y="210" width="130" height="440"/><rect x="990" y="280" width="115" height="360"/></g>
  <g fill="#ffd700" opacity="0.7"><rect x="105" y="305" width="13" height="30"/><rect x="151" y="410" width="13" height="30"/><rect x="275" y="220" width="14" height="32"/><rect x="330" y="330" width="14" height="32"/><rect x="628" y="176" width="15" height="34"/><rect x="700" y="285" width="15" height="34"/><rect x="865" y="270" width="14" height="32"/><rect x="1030" y="338" width="13" height="30"/></g>
  <path d="M135 690 C370 640 520 715 730 660 C875 620 1010 638 1110 610" stroke="#00e5ff" stroke-width="8" stroke-linecap="round" opacity="0.38" fill="none"/><path d="M80 735 C340 690 515 745 760 705 C945 675 1050 700 1170 660" stroke="#ffd700" stroke-width="4" stroke-linecap="round" opacity="0.36" fill="none"/><rect width="1200" height="800" filter="url(#n)"/>
</svg>
