<svg xmlns="http://www.w3.org/2000/svg" viewBox="0 0 1200 800" role="img" aria-label="Mapa de territorios urbanos">
  <rect width="1200" height="800" fill="#030507"/><defs><pattern id="g" width="64" height="64" patternUnits="userSpaceOnUse"><path d="M64 0H0v64" fill="none" stroke="#00e5ff" stroke-opacity="0.08"/></pattern><filter id="n"><feTurbulence baseFrequency="0.65" numOctaves="3" seed="11"/><feComponentTransfer><feFuncA type="table" tableValues="0 0.12"/></feComponentTransfer></filter></defs><rect width="1200" height="800" fill="url(#g)"/>
  <path d="M105 170 340 95 512 220 424 420 160 430z" fill="#00e5ff" opacity="0.12" stroke="#00e5ff" stroke-width="4"/><path d="M545 135 870 92 1040 250 930 470 610 435z" fill="#b00020" opacity="0.18" stroke="#ff4d5f" stroke-width="4"/><path d="M300 485 565 385 780 530 704 705 410 700z" fill="#ffd700" opacity="0.13" stroke="#ffd700" stroke-width="4"/>
  <g stroke="#ffffff" stroke-opacity="0.12" stroke-width="18" stroke-linecap="round"><path d="M90 580h1020"/><path d="M210 120v590"/><path d="M500 90v620"/><path d="M780 120v575"/><path d="M1010 170v500"/></g>
  <g fill="#fff"><circle cx="282" cy="275" r="10"/><circle cx="760" cy="280" r="10"/><circle cx="560" cy="570" r="10"/></g><g font-family="Arial, sans-serif" font-size="34" font-weight="700"><text x="138" y="150" fill="#00e5ff">POLICIA</text><text x="820" y="160" fill="#ff6b7a">BANDA ROJA</text><text x="430" y="665" fill="#ffd700">ZONA CIVIL</text></g><rect width="1200" height="800" filter="url(#n)"/>
</svg>
