<svg xmlns="http://www.w3.org/2000/svg" viewBox="0 0 1200 800" role="img" aria-label="Zona controlada por bandas">
  <defs><linearGradient id="b" x1="0" x2="1" y1="0" y2="1"><stop offset="0" stop-color="#100307"/><stop offset="0.55" stop-color="#040405"/><stop offset="1" stop-color="#1c0006"/></linearGradient><filter id="n"><feTurbulence baseFrequency="0.72" numOctaves="3" seed="15"/><feComponentTransfer><feFuncA type="table" tableValues="0 0.14"/></feComponentTransfer></filter></defs><rect width="1200" height="800" fill="url(#b)"/><circle cx="260" cy="250" r="260" fill="#b00020" opacity="0.34"/><circle cx="920" cy="230" r="220" fill="#ffd700" opacity="0.09"/>
  <rect x="70" y="265" width="330" height="335" fill="#08080a"/><rect x="455" y="180" width="250" height="420" fill="#09090b"/><rect x="760" y="300" width="345" height="300" fill="#08080a"/><path d="M0 600h1200v200H0z" fill="#030304"/>
  <path d="M150 555 C270 500 350 500 480 555" stroke="#ff4055" stroke-width="12" fill="none"/><text x="158" y="535" fill="#ff4055" font-family="Arial Black, Arial, sans-serif" font-size="68" opacity="0.85">BARRIO</text><text x="790" y="540" fill="#ffd700" font-family="Arial Black, Arial, sans-serif" font-size="48" opacity="0.68">NO CRUCES</text>
  <g fill="#0f1117"><path d="M215 610h82l35 105H180z"/><path d="M535 595h92l42 120H490z"/><path d="M875 610h84l38 105H835z"/></g><g stroke="#b00020" stroke-width="9" stroke-linecap="round"><path d="M210 642h95"/><path d="M530 633h105"/><path d="M870 646h98"/></g><rect width="1200" height="800" filter="url(#n)"/>
</svg>
