<svg xmlns="http://www.w3.org/2000/svg" viewBox="0 0 1600 900" role="img" aria-label="Ciudad nocturna de TOP ROLEPLAY">
  <defs>
    <linearGradient id="sky" x1="0" x2="1" y1="0" y2="1">
      <stop offset="0" stop-color="#07070b"/>
      <stop offset="0.42" stop-color="#18040a"/>
      <stop offset="1" stop-color="#00151b"/>
    </linearGradient>
    <radialGradient id="red" cx="24%" cy="36%" r="44%">
      <stop offset="0" stop-color="#b00020" stop-opacity="0.6"/>
      <stop offset="1" stop-color="#b00020" stop-opacity="0"/>
    </radialGradient>
    <radialGradient id="cyan" cx="76%" cy="28%" r="46%">
      <stop offset="0" stop-color="#00e5ff" stop-opacity="0.42"/>
      <stop offset="1" stop-color="#00e5ff" stop-opacity="0"/>
    </radialGradient>
    <filter id="grain">
      <feTurbulence baseFrequency="0.82" numOctaves="3" seed="17" type="fractalNoise"/>
      <feColorMatrix type="saturate" values="0"/>
      <feComponentTransfer><feFuncA type="table" tableValues="0 0.18"/></feComponentTransfer>
    </filter>
  </defs>
  <rect width="1600" height="900" fill="url(#sky)"/>
  <rect width="1600" height="900" fill="url(#red)"/>
  <rect width="1600" height="900" fill="url(#cyan)"/>
  <path d="M0 720 C260 660 430 750 690 690 C990 620 1180 710 1600 650 L1600 900 L0 900 Z" fill="#020204" opacity="0.9"/>
  <g fill="#07090d">
    <path d="M70 410h150v490H70z"/><path d="M260 300h130v600H260z"/><path d="M430 470h90v430h-90z"/>
    <path d="M565 230h170v670H565z"/><path d="M780 350h120v550H780z"/><path d="M945 260h210v640H945z"/>
    <path d="M1200 390h120v510h-120z"/><path d="M1360 250h170v650h-170z"/>
  </g>
  <g fill="#ffd700" opacity="0.72">
    <rect x="104" y="460" width="14" height="36"/><rect x="145" y="520" width="14" height="36"/><rect x="296" y="360" width="12" height="30"/><rect x="340" y="430" width="12" height="30"/>
    <rect x="604" y="290" width="13" height="34"/><rect x="674" y="385" width="13" height="34"/><rect x="1004" y="324" width="15" height="40"/><rect x="1085" y="460" width="15" height="40"/>
    <rect x="1410" y="316" width="14" height="36"/><rect x="1472" y="430" width="14" height="36"/>
  </g>
  <g stroke-linecap="round" stroke-width="10" fill="none">
    <path d="M80 765 C350 700 520 810 805 735 C1050 670 1240 725 1510 690" stroke="#00e5ff" opacity="0.28"/>
    <path d="M120 815 C330 775 565 838 790 788 C1035 735 1238 770 1480 742" stroke="#b00020" opacity="0.36"/>
    <path d="M0 790 H1600" stroke="#ffd700" opacity="0.18"/>
  </g>
  <g opacity="0.78">
    <circle cx="1150" cy="635" r="38" fill="#00e5ff" opacity="0.18"/><path d="M1090 642h132" stroke="#00e5ff" stroke-width="8" stroke-linecap="round"/>
    <circle cx="414" cy="690" r="44" fill="#b00020" opacity="0.22"/><path d="M350 701h148" stroke="#b00020" stroke-width="8" stroke-linecap="round"/>
  </g>
  <rect width="1600" height="900" filter="url(#grain)" opacity="0.38"/>
</svg>
